# xmcd
#
# Track frame offsets: 
#        150
#        22848
#        40060
#        72974
#        99888
#        122330
#        151902
#        166662
#        184359
#        218184
#        234770
#
# Disc length: 3461 seconds
#
# Revision: 0
# Processed by: cddbd v1.5.2PL0 Copyright (c) Steve Scherf et al.
# Submitted via: ExactAudioCopy v0.99pb5
#
DISCID=790d830b
DTITLE=Jimmy Scott - Mileston Profiles
DYEAR=2006
DGENRE=Soul
TTITLE0=Smile
TTITLE1=Moonglow
TTITLE2=Mood Indigo
TTITLE3=Without a song
TTITLE4=You don`t now what love is
TTITLE5=Darn that dream
TTITLE6=Pennies from heaven
TTITLE7=Strange fruit
TTITLE8=How long has this been going on ?
TTITLE9=If i should lose you
TTITLE10=Please send me someone to love
EXTD=
EXTT0=
EXTT1=
EXTT2=
EXTT3=
EXTT4=
EXTT5=
EXTT6=
EXTT7=
EXTT8=
EXTT9=
EXTT10=
PLAYORDER=
